<?xml version="1.0" standalone="no"?>
<!DOCTYPE svg PUBLIC "-//W3C//DTD SVG 20010904//EN"
 "http://www.w3.org/TR/2001/REC-SVG-20010904/DTD/svg10.dtd">
<svg version="1.0" xmlns="http://www.w3.org/2000/svg"
 width="512.000000pt" height="512.000000pt" viewBox="0 0 512.000000 512.000000"
 preserveAspectRatio="xMidYMid meet">

<g transform="translate(0.000000,512.000000) scale(0.100000,-0.100000)"
fill="#000000" stroke="none">
<path d="M0 2560 l0 -2490 2560 0 2560 0 0 2490 0 2490 -1558 0 c-1609 0
-1697 -2 -1852 -41 -94 -24 -256 -102 -336 -162 -77 -59 -188 -175 -237 -250
-58 -87 -123 -231 -147 -327 -43 -167 -38 -376 14 -528 75 -219 205 -379 509
-624 84 -67 206 -168 272 -223 66 -56 269 -222 450 -370 458 -373 707 -581
924 -774 212 -189 541 -515 680 -673 52 -59 97 -105 101 -103 13 8 76 166 96
240 14 52 19 103 18 200 0 119 -3 138 -32 225 -95 286 -274 480 -862 941 -47
37 -146 115 -220 175 -75 60 -248 195 -384 299 -357 272 -539 426 -721 610
-174 175 -217 238 -249 361 -20 79 -21 232 -1 309 51 198 187 329 370 355 43
6 548 10 1318 10 l1247 0 0 -2145 0 -2145 -1960 0 -1960 0 0 2320 0 2320 -300
0 -300 0 0 -2490z"/>
</g>
</svg>
